<?xml version="1.0" encoding="utf-8"?>
<!-- Generator: Adobe Illustrator 24.0.2, SVG Export Plug-In . SVG Version: 6.00 Build 0)  -->
<svg version="1.1" id="Layer_1" xmlns="http://www.w3.org/2000/svg" xmlns:xlink="http://www.w3.org/1999/xlink" x="0px" y="0px"
	 viewBox="0 0 719.9 199.3" style="enable-background:new 0 0 719.9 199.3;" xml:space="preserve">
<style type="text/css">
	.st0{fill:url(#SVGID_1_);}
	.st1{fill:url(#SVGID_2_);}
	.st2{fill:#007CFF;}
	.st3{fill:#2B3989;}
	.st4{fill:url(#SVGID_3_);}
	.st5{fill:url(#SVGID_4_);}
	.st6{fill:url(#SVGID_5_);}
	.st7{fill:url(#SVGID_6_);}
	.st8{fill:#C40C1A;}
	.st9{fill:#03843D;}
</style>
<title>logobrandex</title>
<g>
	<linearGradient id="SVGID_1_" gradientUnits="userSpaceOnUse" x1="72.4364" y1="195.9246" x2="72.4364" y2="45.3576">
		<stop  offset="0" style="stop-color:#BC8C2D"/>
		<stop  offset="0.2777" style="stop-color:#DBAB2B"/>
		<stop  offset="0.5431" style="stop-color:#F5C429"/>
		<stop  offset="0.9944" style="stop-color:#ECD174"/>
	</linearGradient>
	<rect x="69.7" y="54" class="st0" width="5.4" height="110.5"/>
	<linearGradient id="SVGID_2_" gradientUnits="userSpaceOnUse" x1="65.3367" y1="195.9246" x2="65.3367" y2="45.3576">
		<stop  offset="0" style="stop-color:#BC8C2D"/>
		<stop  offset="0.2777" style="stop-color:#DBAB2B"/>
		<stop  offset="0.5431" style="stop-color:#F5C429"/>
		<stop  offset="0.9944" style="stop-color:#ECD174"/>
	</linearGradient>
	<rect x="62.6" y="54" class="st1" width="5.4" height="110.5"/>
	<g>
		<g>
			<path class="st2" d="M126.6,16.2l23.9,15.3l2.7,18.1c20,14.6,32.5,37,31.6,61.4c0,2.7-0.2,5.4-0.5,8.1
				c-5.2,41.7-46.3,70.7-91.8,64.6c-18.5-2.5-34.9-10.4-47.5-21.7c-5.7-4.7-10.6-10-14.7-15.8c13.5,28.2,41.1,48.7,74.4,51.4
				c50,4.1,93.9-33.4,98-83.8C206.6,65.9,173,23.6,126.6,16.2"/>
			<path class="st2" d="M74.6,10.7l-7.5-0.6c-8-0.7-23.8-4.4-30.3-9.2c10.4,25.2,46.5,31.3,46.5,31.3l0,0.1c0,0,10.8,1.7,25.2,2
				c8,0.7,23.8,4.4,30.3,9.2c-10.4-25.2-41.7-30.9-41.7-30.9l-0.3,0l0-0.1C96.8,12.5,83.6,10,74.6,10.7z"/>
			<g>
				<path class="st3" d="M61.8,182.8c37,13.1,57.6,5.4,67.7-1.9c-11.5,3.4-24.1,4.6-37.1,2.8c-18.5-2.5-34.9-10.4-47.5-21.7
					c-5.7-4.7-10.6-10-14.7-15.8C37.3,161.1,48.3,173.7,61.8,182.8L61.8,182.8z"/>
			</g>
			<path class="st3" d="M153.2,49.6c13,9.5,22.8,22.3,27.8,36.9c0,0,0,0,0,0s17.5,31.1-1.9,81.6c13.1-14.5,21.8-33.2,23.5-54.2
				c3.9-48-29.7-90.2-76.1-97.7c6.5,5.2,12.6,10.3,15.7,26.5C146.1,44.7,149.8,47.1,153.2,49.6z"/>
			
				<radialGradient id="SVGID_3_" cx="623.7023" cy="-1784.4893" r="0" gradientTransform="matrix(0.9199 -0.3921 0.3921 0.9199 252.4436 1902.3253)" gradientUnits="userSpaceOnUse">
				<stop  offset="0" style="stop-color:#046599"/>
				<stop  offset="0.4889" style="stop-color:#056397"/>
				<stop  offset="0.665" style="stop-color:#095C92"/>
				<stop  offset="0.7905" style="stop-color:#0F5188"/>
				<stop  offset="0.892" style="stop-color:#184079"/>
				<stop  offset="0.9779" style="stop-color:#232A67"/>
				<stop  offset="1" style="stop-color:#272361"/>
			</radialGradient>
			<path class="st4" d="M126.6,16.2"/>
			
				<radialGradient id="SVGID_4_" cx="623.7023" cy="-1784.4893" r="0" gradientTransform="matrix(0.9199 -0.3921 0.3921 0.9199 252.4436 1902.3253)" gradientUnits="userSpaceOnUse">
				<stop  offset="0" style="stop-color:#046599"/>
				<stop  offset="0.4889" style="stop-color:#056397"/>
				<stop  offset="0.665" style="stop-color:#095C92"/>
				<stop  offset="0.7905" style="stop-color:#0F5188"/>
				<stop  offset="0.892" style="stop-color:#184079"/>
				<stop  offset="0.9779" style="stop-color:#232A67"/>
				<stop  offset="1" style="stop-color:#272361"/>
			</radialGradient>
			<path class="st5" d="M126.6,16.2"/>
		</g>
		<linearGradient id="SVGID_5_" gradientUnits="userSpaceOnUse" x1="143.7415" y1="140.7707" x2="128.025" y2="104.0988">
			<stop  offset="0.1264" style="stop-color:#FFFFFF;stop-opacity:0"/>
			<stop  offset="0.5601" style="stop-color:#B6A18B;stop-opacity:0.4964"/>
			<stop  offset="0.8614" style="stop-color:#876541;stop-opacity:0.8414"/>
			<stop  offset="1" style="stop-color:#754D24"/>
		</linearGradient>
		<path class="st6" d="M153.8,108.7c-4.2,5-11.9,10.5-25.5,12.1h1.2c5.8,0,10.9,4.5,11.1,10.3c0.2,6-4.6,11-10.6,11h-2.1v22.6h3.5
			c17.6,0,31.9-14.3,31.9-31.9v-0.3C163.2,123.2,159.7,114.9,153.8,108.7z"/>
		<linearGradient id="SVGID_6_" gradientUnits="userSpaceOnUse" x1="120.2281" y1="172.9847" x2="120.2281" y2="60.1294">
			<stop  offset="0" style="stop-color:#BC8C2D"/>
			<stop  offset="0.2007" style="stop-color:#D7A72B"/>
			<stop  offset="0.4086" style="stop-color:#EDBC2A"/>
			<stop  offset="0.5431" style="stop-color:#F5C429"/>
			<stop  offset="0.9944" style="stop-color:#ECD174"/>
		</linearGradient>
		<path class="st7" d="M130,142l-23.2,0.1c-7,0-12.6-5.6-12.6-12.6V76.9c0-18.3,18.4-22.2,22.3-22.8c0.1,0,0-0.1,0-0.1H88.1h-3h-7.9
			c0,0-0.1,0-0.1,0.1v66.7v43.9c0,0,0,0.1,0.1,0.1h54c17.6,0,31.9-14.3,31.9-31.9v-0.3c0-9.2-3.6-17.6-9.5-23.8c0,0,0,0,0-0.1
			c4.3-5.4,6.9-12.3,6.9-19.8v-0.3c0-19.1-15.5-34.6-34.6-34.6h-1.3c-12.6,0-22.9,10.2-22.9,22.9c0,0,0,0.1,0.1,0.1l22.1,0
			c5.5,0,10.5,4.1,11,9.6c0.5,5.6-3.3,10.5-8.6,11.5c0,0,0,0,0,0H113c-7.1,0-12.8,5.7-12.8,12.8v10.1c0,0,0,0.1,0.1,0.1h29.2
			c5.8,0,11,4.5,11.1,10.3C140.7,137.2,135.9,142.1,130,142"/>
	</g>
</g>
<g>
	<path class="st8" d="M260.7,109h-23V60.1h24.2c9.1,0,15,4,15,12.4c0,4.7-2.3,8.2-6.2,10.2c5.4,1.6,8.4,6.1,8.4,12.6
		C279,103,273.6,109,260.7,109z M260.7,67.8h-13.5v12.5h13.5c3.9,0,6.9-2.2,6.9-6.2C267.5,69.3,265,67.8,260.7,67.8z M261.9,87.2
		h-14.7v14.1h14.7c4.9,0,7.8-2.5,7.8-7.3C269.7,89.6,266.8,87.2,261.9,87.2z"/>
	<path class="st8" d="M319.2,109c-1.4-2.2-1.5-5.1-1.5-7.6c0-8.5-1.8-12.3-9.3-12.3h-12.2V109h-9.5V60.1h23.8c11,0,16.6,5,16.6,13.4
		c0,8-4.7,11-7.1,11.9c2.7,0.8,6.2,3.4,6.2,10.4c0,5.5,0.7,10.5,3.4,13.2H319.2z M309.8,67.8h-13.5v14.1h13.6c5.1,0,7.9-2.5,7.9-7.3
		C317.8,68.8,314,67.8,309.8,67.8z"/>
	<path class="st8" d="M367.9,109l-4.6-12.8h-18.9l-4.6,12.8H330l19.1-48.9h9.8L378,109H367.9z M353.9,69.9l-6.9,19.2h13.7
		L353.9,69.9z"/>
	<path class="st8" d="M413,108.9l-21.9-34.7V109h-8.9V60.1l9.6,0.1L413.6,95V60.1h9V109L413,108.9z"/>
	<path class="st8" d="M453.6,109h-20.8V60.1h20.8c15.4,0,21.9,10.9,21.9,24.4S469,109,453.6,109z M450.3,67.8h-8v33.6h8
		c13.1,0,15.9-7.4,15.9-16.8C466.2,75.2,463.4,67.8,450.3,67.8z"/>
	<path class="st8" d="M483.2,109V60.1h36v8.1h-26.6v11.7h24.6v7.7h-24.6v13.3h27.1v8.1H483.2z"/>
	<path class="st8" d="M556.4,109l-11.9-18.1L532,109h-10.6l17.8-25.3l-16.5-23.6h11.1l10.9,16.7l11.4-16.6h10.5l-16.4,23.5L568,109
		H556.4z M550.2,83.7l16.4-23.5h-10.5l-11.4,16.6l-10.9-16.7h-11.1l16.5,23.6L521.4,109H532l12.5-18.1l11.9,18.1H568L550.2,83.7z
		 M556.4,109l-11.9-18.1L532,109h-10.6l17.8-25.3l-16.5-23.6h11.1l10.9,16.7l11.4-16.6h10.5l-16.4,23.5L568,109H556.4z"/>
</g>
<g>
	<path class="st9" d="M250,157.1h-12.3v-28.9H250c9.1,0,12.9,6.4,12.9,14.4C262.9,150.6,259.1,157.1,250,157.1z M248,132.7h-4.7
		v19.8h4.7c7.7,0,9.4-4.4,9.4-9.9C257.4,137,255.7,132.7,248,132.7z"/>
	<path class="st9" d="M272.9,157.1v-28.9h5.6v28.9H272.9z M278.4,128.2h-5.6v28.9h5.6V128.2z M272.9,157.1v-28.9h5.6v28.9H272.9z"/>
	<path class="st9" d="M309.1,157.1c-0.8-1.3-0.9-3-0.9-4.5c0-5-1-7.2-5.5-7.2h-7.2v11.7H290v-28.9H304c6.5,0,9.8,2.9,9.8,7.9
		c0,4.7-2.8,6.5-4.2,7.1c1.6,0.5,3.7,2,3.7,6.1c0,3.3,0.4,6.2,2,7.8H309.1z M303.5,132.7h-8v8.3h8c3,0,4.7-1.5,4.7-4.3
		C308.3,133.3,306.1,132.7,303.5,132.7z"/>
	<path class="st9" d="M324.4,157.1v-28.9h21.3v4.8H330v6.9h14.5v4.5H330v7.9h16v4.8H324.4z"/>
	<path class="st9" d="M368.4,157.7c-8.8,0-14.1-6.9-14.1-15.2c0-8.2,5.3-15.1,14.1-15.1c6.6,0,11.9,3.6,12.5,10.2h-5.5
		c-0.9-3.4-2.9-5.6-7-5.6c-6.1,0-8.5,5.2-8.5,10.6c0,5.4,2.5,10.6,8.5,10.6c4.4,0,7.1-2.8,7.2-7.5h5.3
		C381.3,153.5,375.5,157.7,368.4,157.7z"/>
	<path class="st9" d="M403,132.9v24.1h-5.6v-24.1h-9.1v-4.8h23.9v4.8H403z"/>
	<path class="st9" d="M433.5,157.7c-8.8,0-14.1-6.9-14.1-15.2c0-8.2,5.3-15.1,14.1-15.1c8.8,0,14.1,6.9,14.1,15.1
		C447.6,150.9,442.2,157.7,433.5,157.7z M433.5,132c-6.1,0-8.5,5.2-8.5,10.6c0,5.4,2.5,10.6,8.5,10.6c6.1,0,8.5-5.2,8.5-10.6
		C442,137.2,439.5,132,433.5,132z"/>
	<path class="st9" d="M476.7,157.1c-0.8-1.3-0.9-3-0.9-4.5c0-5-1-7.2-5.5-7.2h-7.2v11.7h-5.6v-28.9h14.1c6.5,0,9.8,2.9,9.8,7.9
		c0,4.7-2.8,6.5-4.2,7.1c1.6,0.5,3.7,2,3.7,6.1c0,3.3,0.4,6.2,2,7.8H476.7z M471.1,132.7h-8v8.3h8c3,0,4.7-1.5,4.7-4.3
		C475.9,133.3,473.7,132.7,471.1,132.7z"/>
	<path class="st9" d="M505.1,145.7v11.4h-5.5v-11.4l-11-17.6h6.4l7.5,12.6l7.4-12.5h6.3L505.1,145.7z"/>
</g>
</svg>
